<?xml version="1.0" encoding="utf-8"?>
<!-- Generator: Adobe Illustrator 22.1.0, SVG Export Plug-In . SVG Version: 6.00 Build 0)  -->
<svg version="1.1" id="Capa_1" xmlns="http://www.w3.org/2000/svg" xmlns:xlink="http://www.w3.org/1999/xlink" x="0px" y="0px"
	 viewBox="0 0 512 512" style="enable-background:new 0 0 512 512;" xml:space="preserve">
<style type="text/css">
	.st0{fill:#C7CFE2;}
	.st1{fill:#D5DCED;}
	.st2{fill:#AFB9D2;}
	.st3{fill:#7F8499;}
	.st4{fill:none;}
	.st5{fill:#5F626D;}
</style>
<path class="st0" d="M150.2,197.7c18.3,19.9,107.7,110.1,233.2,117.2c4.2,0.2,6.4-5.1,3.1-7.8c-27.7-23.3-104.9-94.1-145-190.2
	c-0.7-1.8-2.5-2.9-4.5-2.7c-11.6,1.2-51.8,3.2-75.3-22.2l12.2,28.2c9.4,43.6-13.1,63.9-23,70.9C148.8,192.7,148.4,195.8,150.2,197.7
	z"/>
<g>
	<path class="st1" d="M174,120.2c9.4,43.6-13.1,63.9-23,70.9c-2.2,1.5-2.5,4.6-0.7,6.6c18.3,19.9,107.7,110.1,233.2,117.2
		c2,0.1,3.4-1,4.2-2.4c-134-50.3-197.5-159.3-218-202.3L174,120.2z"/>
	<path class="st1" d="M170.4,108.5l-10.3-8.6c8.6,35.4-16.6,55.2-16.8,55.4c-1.9,1.5-2.3,4.3-0.8,6.2c1.5,1.9,4.3,2.3,6.2,0.8
		C149.7,161.4,173.5,142.6,170.4,108.5z"/>
</g>
<path class="st2" d="M245.8,164.5c-0.5-2.4-2.9-3.9-5.3-3.3c-21.2,4.9-38.7-4.3-38.9-4.4c-0.7-0.4-1.4-0.5-2.1-0.5l-2.1,8.3
	c0.8,0.4,20.6,10.9,45.1,5.2C244.8,169.2,246.3,166.9,245.8,164.5z"/>
<path class="st0" d="M239.3,211.5l-10-6c5.3,21.5-3.7,31.9-3.8,32c-1.7,1.8-1.6,4.6,0.2,6.2c1.8,1.7,4.6,1.6,6.2-0.2
	C232.5,243,241.9,232.5,239.3,211.5z"/>
<path class="st3" d="M147.4,40.9l0.1,0.5c8.4,33.9,46.4,151.2,180.4,237.7c2,1.3,2.6,4,1.3,6.1c-1.3,2-4.1,2.6-6.1,1.3
	C186.4,198.3,147.6,78.2,139,43.6l-0.1-0.5c-0.6-2.4,0.8-4.8,3.2-5.3c0.4-0.1,0.7-0.1,1.1-0.1C145.1,37.6,146.9,38.9,147.4,40.9z"/>
<g>
	<rect x="21" y="338.4" class="st4" width="473" height="138"/>
	<path class="st5" d="M149.1,341.5h4.5v54.6h31.6l-0.8,4.2h-35.3V341.5z"/>
	<path class="st5" d="M198.8,341.5v58.8h-4.5v-58.8H198.8z"/>
	<path class="st5" d="M260.6,400.3h-3.8c-0.3-0.7-0.5-3.7-0.6-9.4c-2.1,4-6.7,10.1-19,10.1c-16.9,0-25.5-12.9-25.5-29.6
		c0-17.6,9.2-30.7,26.5-30.7c12.7,0,21.1,6.6,22.9,17.5h-4.5c-2.5-8.3-8.3-13.3-18.6-13.3c-14.7,0-21.4,11.4-21.4,26.3
		c0,13.4,6.5,25.6,20.8,25.6c14.7,0,18.8-9.6,18.8-22.6v-0.7h-19v-4.2h23.4V400.3z"/>
	<path class="st5" d="M275.8,341.5h4.5v25.6h35.3v-25.6h4.5v58.8h-4.5v-29h-35.3v29h-4.5V341.5z"/>
	<path class="st5" d="M349.2,345.7h-19.7v-4.2h44.2v4.2h-19.8v54.6h-4.6V345.7z"/>
	<path class="st5" d="M93.3,449.2l-4.5,12.3H86l13.1-35.7h3.3l13.7,35.7h-3l-4.6-12.3H93.3z M107.5,446.7c-4-10.6-6-15.7-6.7-18.1
		h-0.1c-0.9,2.7-3.2,9-6.4,18.1H107.5z"/>
	<path class="st5" d="M122.4,425.8h11.8c9.8,0,16.6,6.8,16.6,17.5c0,10.7-6.6,18.2-16.6,18.2h-11.8V425.8z M125.1,459h8.6
		c9.4,0,14.1-6.6,14.1-15.5c0-7.9-4.2-15.1-14.1-15.1h-8.6V459z"/>
	<path class="st5" d="M189.5,445.1c0-7,0.1-13.7,0.2-17.2h-0.2c-1.4,4.8-8.7,22.4-13.2,33.7h-2.7c-3.4-8.7-10.9-28.3-12.5-33.7H161
		c0.3,4.1,0.4,12.4,0.4,18.5v15.2h-2.8v-35.7h4.1c4.9,12.2,11.1,28.3,12.4,32.3h0.1c0.8-2.6,8-20.4,13-32.3h4.1v35.7h-2.8V445.1z"/>
	<path class="st5" d="M205.5,425.8v35.7h-2.8v-35.7H205.5z"/>
	<path class="st5" d="M216,461.5v-35.7h4.1c5.6,8.6,18.6,28.5,20.9,32.4h0.1c-0.3-5.2-0.3-10.4-0.3-16.2v-16.2h2.8v35.7h-3.8
		c-5.3-8.3-18.6-29-21.1-32.9h-0.1c0.3,4.7,0.2,9.9,0.2,16.4v16.6H216z"/>
	<path class="st5" d="M274.1,428.4h-12v-2.5H289v2.5h-12v33.1h-2.8V428.4z"/>
	<path class="st5" d="M294.3,425.8h2.8v15.6h21.4v-15.6h2.8v35.7h-2.8v-17.6H297v17.6h-2.8V425.8z"/>
	<path class="st5" d="M352.7,444h-18.2v15h19.9l-0.4,2.5h-22.3v-35.7h21.9v2.5h-19.1v13.1h18.2V444z"/>
	<path class="st5" d="M392.3,445.1c0-7,0.1-13.7,0.2-17.2h-0.2c-1.4,4.8-8.7,22.4-13.2,33.7h-2.7c-3.4-8.7-10.9-28.3-12.5-33.7h-0.1
		c0.3,4.1,0.4,12.4,0.4,18.5v15.2h-2.8v-35.7h4.1c4.9,12.2,11.1,28.3,12.4,32.3h0.1c0.8-2.6,8-20.4,13-32.3h4.1v35.7h-2.8V445.1z"/>
	<path class="st5" d="M426.6,444h-18.2v15h19.9l-0.4,2.5h-22.3v-35.7h21.9v2.5h-19.1v13.1h18.2V444z"/>
</g>
</svg>
